<svg width="138" height="52" viewBox="0 0 138 52" fill="none" xmlns="http://www.w3.org/2000/svg">
<g clip-path="url(#clip0)">
<path d="M71.2467 16.9291L77.8122 16.5059C77.962 17.5764 78.2366 18.3731 78.686 18.9457C79.4099 19.8419 80.4085 20.29 81.7316 20.29C82.7051 20.29 83.479 20.066 84.0033 19.5929C84.5025 19.2195 84.8021 18.622 84.8021 17.9996C84.8021 17.4021 84.5275 16.8295 84.0532 16.4561C83.5539 16.008 82.3806 15.5598 80.5333 15.1615C77.5127 14.4893 75.3408 13.5931 74.0677 12.4479C72.7945 11.3773 72.0705 9.80889 72.1205 8.14087C72.1205 6.99567 72.47 5.85046 73.119 4.90442C73.8679 3.8339 74.8915 2.98744 76.1147 2.51442C77.4378 1.94182 79.2851 1.64307 81.6067 1.64307C84.4526 1.64307 86.6245 2.16588 88.1223 3.2364C89.6201 4.28202 90.5188 5.97494 90.7934 8.29025L84.3028 8.66369C84.1281 7.66785 83.7786 6.94588 83.2044 6.47285C82.6302 5.99983 81.8813 5.77577 80.9077 5.77577C80.1089 5.77577 79.5098 5.95004 79.1104 6.27369C78.7359 6.57244 78.4863 7.02056 78.5112 7.51848C78.5112 7.89192 78.7109 8.24046 79.0105 8.46452C79.335 8.76327 80.1089 9.03712 81.3321 9.28608C84.3528 9.93337 86.4996 10.5807 87.8227 11.2529C89.1458 11.925 90.0944 12.7466 90.6686 13.7175C91.2677 14.7134 91.5673 15.8586 91.5423 17.0287C91.5423 18.4228 91.1429 19.817 90.3441 20.9871C89.5203 22.207 88.3719 23.1531 87.0239 23.7257C85.6009 24.3481 83.8036 24.6717 81.6567 24.6717C77.8622 24.6717 75.241 23.9497 73.7681 22.4809C72.2952 21.012 71.4215 19.1697 71.2467 16.9291ZM1.57272 24.2983V2.0414H13.081C15.203 2.0414 16.8506 2.21567 17.974 2.58911C19.0724 2.93765 20.0459 3.65963 20.695 4.63056C21.419 5.70108 21.7685 6.94587 21.7435 8.24046C21.8184 10.4313 20.695 12.5225 18.7728 13.618C18.0239 14.0412 17.2001 14.3399 16.3513 14.4893C16.9754 14.6636 17.5995 14.9623 18.1487 15.3109C18.5731 15.6594 18.9226 16.0577 19.2471 16.481C19.6216 16.9042 19.9461 17.3772 20.2207 17.8751L23.5658 24.3232H15.7272L12.0326 17.4768C11.5582 16.6055 11.1588 16.0328 10.7844 15.759C10.2851 15.4105 9.68596 15.2362 9.08683 15.2362H8.4877V24.2734H1.57272V24.2983ZM8.4877 11.0537H11.4085C12.0326 11.0039 12.6317 10.9043 13.2308 10.7549C13.6802 10.6802 14.0796 10.4313 14.3542 10.0579C15.0282 9.1616 14.9284 7.89192 14.1046 7.12015C13.6552 6.74671 12.7815 6.54754 11.5333 6.54754H8.4877V11.0537ZM0 43.3685L6.56549 42.9452C6.71527 44.0157 6.98987 44.8124 7.43922 45.385C8.13821 46.2813 9.16172 46.7543 10.4848 46.7543C11.4584 46.7543 12.2323 46.5302 12.7565 46.0572C13.2558 45.6589 13.5554 45.0863 13.5554 44.4639C13.5554 43.8664 13.2808 43.2938 12.8064 42.9203C12.3072 42.4722 11.1339 42.0241 9.26158 41.6257C6.24095 40.9536 4.0691 40.0573 2.79595 38.9121C1.52279 37.8416 0.798842 36.2731 0.84877 34.6051C0.84877 33.4599 1.19826 32.3147 1.84732 31.3687C2.59624 30.2982 3.61975 29.4517 4.84298 28.9787C6.16606 28.4061 8.01339 28.1073 10.335 28.1073C13.1809 28.1073 15.3527 28.6301 16.8506 29.7007C18.3484 30.7712 19.2221 32.4392 19.4967 34.7545L13.0062 35.1279C12.8314 34.1321 12.4819 33.4101 11.9077 32.9371C11.3585 32.4641 10.5847 32.24 9.61107 32.2649C8.81223 32.2649 8.2131 32.4392 7.81368 32.7877C7.41425 33.0865 7.18958 33.5346 7.21454 34.0325C7.21454 34.406 7.41425 34.7545 7.71382 34.9786C8.03835 35.2773 8.81223 35.5512 10.0355 35.8001C13.0561 36.4474 15.203 37.0947 16.526 37.7669C17.8491 38.4391 18.7978 39.2606 19.3719 40.2316C19.9711 41.2274 20.2706 42.3726 20.2706 43.5178C20.2706 44.912 19.8462 46.2813 19.0724 47.4514C18.2486 48.6713 17.1002 49.6173 15.7522 50.1899C14.3292 50.8123 12.5318 51.1359 10.3849 51.1359C6.59045 51.1359 3.96925 50.414 2.49638 48.9451C1.02352 47.4514 0.199711 45.6091 0 43.3685H0Z" fill="white"/>
<path d="M33.2012 41.6258L39.2425 43.4432C38.9179 44.9619 38.2439 46.4058 37.3202 47.6755C36.4715 48.7958 35.3481 49.6672 34.0749 50.2398C32.7768 50.8124 31.1292 51.1112 29.1321 51.1112C26.7106 51.1112 24.7135 50.7626 23.1907 50.0655C21.643 49.3684 20.3199 48.1237 19.1965 46.3561C18.0731 44.5884 17.5239 42.3229 17.5239 39.5595C17.5239 35.8749 18.4975 33.0368 20.4697 31.07C22.4418 29.1033 25.2128 28.1074 28.8076 28.1074C31.6285 28.1074 33.8253 28.68 35.448 29.8003C37.0456 30.9455 38.2439 32.6883 39.0427 35.0285L32.9516 36.3728C32.8018 35.85 32.5771 35.3272 32.2775 34.8791C31.9031 34.3563 31.4288 33.9579 30.8546 33.6592C30.2804 33.3604 29.6314 33.236 28.9823 33.236C27.4096 33.236 26.2113 33.8584 25.3875 35.128C24.7634 36.0492 24.4389 37.518 24.4389 39.5097C24.4389 41.9744 24.8134 43.6673 25.5623 44.5885C26.3112 45.5096 27.3597 45.9577 28.7327 45.9577C30.0558 45.9577 31.0543 45.5843 31.7283 44.8623C32.4024 44.0905 32.9016 43.02 33.2012 41.6258ZM47.3058 28.4809H54.1958V36.2732H61.7349V28.4809H68.6748V50.7377H61.7349V41.7254H54.1958V50.7377H47.3058V28.4809Z" fill="white"/>
<path d="M67.7271 39.6093C67.7271 35.9745 68.7506 33.1364 70.7726 31.1198C72.7947 29.1032 75.6406 28.0825 79.2603 28.0825C82.98 28.0825 85.8258 29.0784 87.8479 31.07C89.87 33.0617 90.8685 35.85 90.8685 39.435C90.8685 42.0491 90.4192 44.1652 89.5454 45.8332C88.6967 47.4764 87.3736 48.8207 85.7509 49.717C84.0784 50.6381 82.0064 51.1111 79.5349 51.1111C77.0136 51.1111 74.9416 50.7128 73.294 49.9161C71.5964 49.0697 70.1985 47.7502 69.2748 46.132C68.2513 44.3893 67.7271 42.2233 67.7271 39.6093ZM74.6171 39.6342C74.6171 41.8748 75.0415 43.493 75.8653 44.4889C76.6891 45.4598 77.8374 45.9577 79.2853 45.9577C80.7582 45.9577 81.9065 45.4847 82.7303 44.5138C83.5541 43.5428 83.9535 41.825 83.9535 39.3354C83.9535 37.2442 83.5292 35.7006 82.6804 34.7546C81.8316 33.7837 80.6833 33.3106 79.2354 33.3106C77.9622 33.2608 76.739 33.8086 75.8902 34.7795C75.0415 35.7504 74.6171 37.3687 74.6171 39.6342ZM97.9333 39.6093C97.9333 35.9745 98.9568 33.1364 100.979 31.1198C103.001 29.1032 105.847 28.0825 109.467 28.0825C113.186 28.0825 116.057 29.0784 118.054 31.07C120.051 33.0617 121.075 35.85 121.075 39.435C121.075 42.0491 120.625 44.1652 119.752 45.8332C118.903 47.4764 117.58 48.8207 115.957 49.717C114.285 50.6381 112.213 51.1111 109.741 51.1111C107.22 51.1111 105.148 50.7128 103.5 49.9161C101.803 49.0697 100.405 47.7502 99.481 46.132C98.4575 44.3893 97.9333 42.2233 97.9333 39.6093ZM104.823 39.6342C104.823 41.8748 105.248 43.493 106.071 44.4889C106.895 45.4598 108.044 45.9577 109.492 45.9577C110.964 45.9577 112.113 45.4847 112.937 44.5138C113.76 43.5428 114.16 41.825 114.16 39.3354C114.16 37.2442 113.735 35.7006 112.887 34.7546C112.038 33.7837 110.89 33.3106 109.442 33.3106C108.168 33.2608 106.92 33.8086 106.096 34.7795C105.248 35.7504 104.823 37.3687 104.823 39.6342Z" fill="white"/>
<path d="M120.35 28.4805H127.24V45.2602H138V50.7373H120.325V28.4805H120.35Z" fill="white"/>
<path d="M112.722 27.1998C119.653 21.9789 121.793 13.1317 117.501 7.43887C113.209 1.74609 104.111 1.36352 97.1805 6.58439C90.2495 11.8053 88.11 20.6525 92.4018 26.3453C96.6935 32.0381 105.791 32.4206 112.722 27.1998Z" stroke="white" stroke-width="0.180618" stroke-miterlimit="10"/>
<path d="M112.722 27.1998C119.653 21.9789 121.793 13.1317 117.501 7.43887C113.209 1.74609 104.111 1.36352 97.1805 6.58439C90.2495 11.8053 88.11 20.6525 92.4018 26.3453C96.6935 32.0381 105.791 32.4206 112.722 27.1998Z" stroke="white" stroke-width="0.180618" stroke-miterlimit="10"/>
<path d="M97.9572 15.261L100.454 13.5183L103.524 17.8751C104.048 18.5722 104.448 19.319 104.747 20.1406C104.922 20.763 104.872 21.4352 104.623 22.0327C104.298 22.7795 103.774 23.4019 103.075 23.8501C102.251 24.4227 101.552 24.7463 100.953 24.8459C100.379 24.9455 99.7795 24.8459 99.2303 24.5969C98.6312 24.2982 98.1069 23.875 97.7075 23.3273L99.8544 21.3356C100.029 21.6094 100.254 21.8584 100.503 22.0576C100.678 22.182 100.878 22.2567 101.103 22.2567C101.277 22.2567 101.452 22.182 101.577 22.0825C101.827 21.9331 102.001 21.6343 101.976 21.3356C101.901 20.9124 101.727 20.4891 101.452 20.1655L97.9572 15.261ZM105.446 18.0244L107.718 16.2319C107.968 16.5307 108.292 16.7548 108.642 16.8792C109.141 17.0286 109.665 16.929 110.09 16.6054C110.389 16.4062 110.639 16.1324 110.739 15.7838C110.888 15.3357 110.639 14.8378 110.189 14.6884C110.115 14.6635 110.04 14.6386 109.965 14.6386C109.665 14.6137 109.141 14.7382 108.367 15.0618C107.094 15.5847 106.095 15.7838 105.346 15.7091C104.623 15.6344 103.948 15.261 103.549 14.6386C103.249 14.2154 103.1 13.7175 103.075 13.2196C103.075 12.6469 103.225 12.0743 103.549 11.6013C104.023 10.9291 104.598 10.3565 105.297 9.90841C106.345 9.18643 107.269 8.83789 108.068 8.83789C108.866 8.83789 109.615 9.21133 110.314 9.9831L108.068 11.7507C107.618 11.1781 106.769 11.0536 106.195 11.5017L106.12 11.5764C105.871 11.7258 105.696 11.9499 105.596 12.2237C105.521 12.4229 105.571 12.647 105.696 12.8212C105.796 12.9457 105.946 13.0453 106.12 13.0453C106.32 13.0702 106.67 12.9706 107.169 12.7465C108.417 12.2237 109.366 11.925 110.015 11.8254C110.564 11.7258 111.138 11.7756 111.662 11.9997C112.137 12.1988 112.536 12.5474 112.811 12.9706C113.16 13.4685 113.36 14.066 113.385 14.6884C113.41 15.3357 113.235 15.9581 112.886 16.5058C112.436 17.178 111.862 17.7506 111.188 18.1987C109.815 19.1448 108.692 19.5431 107.793 19.3937C106.819 19.2443 106.02 18.7464 105.446 18.0244Z" fill="white"/>
</g>
<defs>
<clipPath id="clip0">
<rect width="138" height="51.1111" fill="white"/>
</clipPath>
</defs>
</svg>
